<svg version="1.1" id="Layer_1" xmlns="http://www.w3.org/2000/svg" xmlns:xlink="http://www.w3.org/1999/xlink" x="0" y="0" width="170.1" height="27" viewBox="0 0 170.1 27" xml:space="preserve"><defs><path id="SVGID_1_" d="M.014.355h169.987v26.29H.014z"/></defs><clipPath id="SVGID_2_"><use xlink:href="#SVGID_1_" overflow="visible"/></clipPath><path clip-path="url(#SVGID_2_)" fill="#010101" d="M170 2.876a2.503 2.503 0 0 0-2.484-2.521A2.495 2.495 0 0 0 165 2.834v2.523h2.479A2.5 2.5 0 0 0 170 2.876"/><g><defs><path id="SVGID_3_" d="M0 .354h170v26.292H0z"/></defs><clipPath id="SVGID_4_"><use xlink:href="#SVGID_3_" overflow="visible"/></clipPath><path clip-path="url(#SVGID_4_)" fill="#010101" d="M160.167 2.315a2.504 2.504 0 0 0-.944 3.411 2.508 2.508 0 0 0 3.412.941l2.183-1.26-1.241-2.149a2.5 2.5 0 0 0-3.41-.943M164.599 11.111a2.5 2.5 0 0 0 3.423-.888 2.503 2.503 0 0 0-.888-3.425l-2.186-1.26-1.24 2.148a2.503 2.503 0 0 0 .891 3.425M86.23 14.915h-3.341V6.477h3.341c2.712 0 4.421 1.843 4.421 4.23 0 2.36-1.709 4.208-4.421 4.208m.216-11.153h-6.512v19.807h2.955v-5.915h3.529c4.233 0 7.191-3.066 7.191-6.946 0-3.907-2.958-6.946-7.163-6.946M138.949 20.895c-2.429-.029-4.091-1.929-4.119-4.312-.025-2.348 1.876-4.281 4.104-4.274 2.263 0 4.134 1.956 4.122 4.318-.011 2.339-1.862 4.297-4.107 4.268m.002-11.339c-3.953-.013-7.095 3.127-7.065 7.065.026 3.94 3.129 7.035 7.046 7.035 3.923 0 7.057-3.104 7.074-7.015.018-3.949-3.094-7.073-7.055-7.085M121.862 14.52c-.103-2.443-1.603-4.358-4.153-4.855-3.58-.692-5.377 1.753-5.377 1.753-.024-.564-.041-1.078-.064-1.56h-2.852V23.35h2.969v-7.952c.109-2.482 2.316-3.886 4.752-3.012 1.231.442 1.74 1.518 1.77 2.747v8.227h3.062v-.377c-.029-2.82.01-5.645-.107-8.463M160.002 22.983c-.023-2.82.009-5.648-.104-8.465-.103-2.441-1.602-4.358-4.156-4.853-3.577-.693-5.377 1.749-5.377 1.749-.025-.562-.037-1.075-.06-1.557h-2.854v13.49h2.968v-7.949c.11-2.482 2.317-3.89 4.753-3.01 1.231.439 1.739 1.516 1.77 2.741v8.228h3.061c-.001.001.001-.26-.001-.374M128.187 19.112a7.52 7.52 0 0 1-.087-.967c-.01-1.728 0-5.682 0-5.682h2.822V9.806h-2.85V5.015l-2.993 1.623v3.193h-2.229v2.635h2.266v.761c0 1.443-.014 2.881.008 4.322.01.772.036 1.542.131 2.307.156 1.233.604 2.328 1.799 2.93 1.217.61 2.521.646 3.884.582v-2.726c-.655-.037-.874-.061-1.239-.095-.958-.092-1.386-.497-1.512-1.435"/><path clip-path="url(#SVGID_4_)" fill="#010101" d="M96.816 15.065c.277-1.574 1.957-2.825 3.763-2.903 2.394-.102 3.851 1.324 4.108 2.903h-7.871zm2.93-5.432c-5.873.884-7.509 7.396-4.674 11.288 2.373 3.259 7.344 3.402 9.925 1.577.726-.513 1.347-1.112 1.835-1.858l-2.436-1.349c-1.221 1.593-2.881 2.059-4.913 1.552-1.525-.382-2.628-1.635-2.849-3.212h11.096c.123-.94.061-1.81-.117-2.661-.745-3.587-3.871-5.937-7.867-5.337M.014 13.457h3.062c2.212 0 3.692.747 3.692 2.942 0 2.104-1.494 3.095-3.692 3.095H1.279v3.963H.014v-10zm2.912 5c1.737 0 2.577-.639 2.577-2.058 0-1.448-.855-1.92-2.577-1.92H1.279v3.978h1.647zM11.207 15.866c1.815 0 3.431 1.415 3.431 3.902 0 2.453-1.616 3.872-3.431 3.872s-3.431-1.419-3.431-3.872c0-2.487 1.616-3.902 3.431-3.902m0 6.737c1.28 0 2.134-1.144 2.134-2.835 0-1.708-.854-2.866-2.134-2.866-1.265 0-2.134 1.158-2.134 2.866 0 1.691.869 2.835 2.134 2.835M15.657 16.048h1.282l1.098 4.284a58.1 58.1 0 0 1 .443 2.057h.061c.165-.687.319-1.37.501-2.057l1.144-4.284h1.221l1.158 4.284c.183.701.351 1.37.519 2.057h.06c.168-.687.305-1.355.458-2.057l1.083-4.284h1.187l-1.981 7.408h-1.525L21.3 19.479c-.185-.703-.321-1.39-.503-2.137h-.061c-.168.747-.321 1.45-.519 2.15l-1.036 3.964h-1.465l-2.059-7.408zM30.22 15.866c1.891 0 2.96 1.354 2.96 3.474 0 .262-.017.504-.047.688h-5.001c.091 1.601 1.052 2.607 2.47 2.607.701 0 1.295-.228 1.845-.578l.443.821c-.642.411-1.433.763-2.441.763-1.981 0-3.553-1.448-3.553-3.871 0-2.429 1.633-3.904 3.324-3.904m1.862 3.338c0-1.508-.672-2.348-1.83-2.348-1.037 0-1.983.854-2.137 2.348h3.967zM35.009 16.048h1.037l.107 1.34h.044c.503-.929 1.267-1.523 2.104-1.523.321 0 .55.047.793.151l-.243 1.1a2.063 2.063 0 0 0-.718-.124c-.625 0-1.372.457-1.873 1.708v4.757h-1.251v-7.409zM42.921 15.866c1.891 0 2.96 1.354 2.96 3.474 0 .262-.018.504-.047.688h-5.001c.091 1.601 1.052 2.607 2.47 2.607.701 0 1.295-.228 1.845-.578l.443.821c-.643.411-1.433.763-2.441.763-1.981 0-3.553-1.448-3.553-3.871.001-2.429 1.633-3.904 3.324-3.904m1.863 3.338c0-1.508-.672-2.348-1.83-2.348-1.037 0-1.983.854-2.137 2.348h3.967zM50.394 15.866c.852 0 1.417.318 2.074.854l-.061-1.265v-2.853h1.265v10.855h-1.036l-.107-.869h-.047c-.579.564-1.372 1.051-2.241 1.051-1.861 0-3.066-1.4-3.066-3.871 0-2.409 1.526-3.902 3.219-3.902m.122 6.722c.686 0 1.28-.336 1.891-1.022v-3.871c-.626-.563-1.19-.777-1.801-.777-1.187 0-2.134 1.143-2.134 2.834 0 1.768.747 2.836 2.044 2.836M59.254 12.602h1.251v2.957l-.032 1.343c.672-.596 1.494-1.036 2.317-1.036 1.922 0 2.944 1.477 2.944 3.764 0 2.531-1.511 4.01-3.203 4.01-.686 0-1.465-.335-2.118-.915h-.047l-.107.733h-1.005V12.602zm3.063 9.986c1.22 0 2.12-1.114 2.12-2.942 0-1.633-.548-2.729-1.952-2.729-.626 0-1.279.35-1.98 1.007v3.885c.654.566 1.326.779 1.812.779M67.734 25.606c.837 0 1.373-.669 1.677-1.584l.167-.55-2.973-7.424h1.297l1.509 4.1c.229.642.489 1.404.717 2.09h.062c.211-.671.425-1.433.622-2.09l1.329-4.1h1.219l-2.791 8.02c-.518 1.463-1.28 2.577-2.774 2.577-.336 0-.626-.063-.869-.153l.243-.99c.154.043.383.104.565.104"/></g></svg>