<svg version="1.1" id="Layer_1" xmlns="http://www.w3.org/2000/svg" xmlns:xlink="http://www.w3.org/1999/xlink" x="0" y="0" width="63.541" height="72.838" viewBox="0 0 63.541 72.838" xml:space="preserve"><path fill="#555759" d="M10.521 17.533h1.982l2.487 7.734 2.564-7.763h1.549l2.562 7.763 2.488-7.734h1.922L22.44 28.038h-1.579l-2.563-7.494-2.561 7.494h-1.58z"/><defs><path id="SVGID_1_" d="M0 0h63.541v72.838H0z"/></defs><clipPath id="SVGID_2_"><use xlink:href="#SVGID_1_" overflow="visible"/></clipPath><path clip-path="url(#SVGID_2_)" fill="#555759" d="M30.694 27.963v-.968c-.536.64-1.357 1.132-2.548 1.132-1.488 0-2.8-.851-2.8-2.428v-.03c0-1.742 1.355-2.577 3.188-2.577.954 0 1.565.134 2.175.327v-.149c0-1.087-.685-1.683-1.937-1.683-.878 0-1.534.192-2.25.491l-.491-1.445c.864-.388 1.713-.655 2.994-.655 2.325 0 3.458 1.221 3.458 3.321v4.664h-1.789zm.045-3.292a5.142 5.142 0 0 0-1.803-.314c-1.133 0-1.803.463-1.803 1.223v.03c0 .745.67 1.161 1.519 1.161 1.194 0 2.087-.67 2.087-1.654v-.446zM33.242 26.936l.805-1.222c.85.641 1.771.968 2.578.968.774 0 1.222-.327 1.222-.849v-.03c0-.609-.835-.82-1.759-1.104-1.161-.327-2.457-.804-2.457-2.308v-.03c0-1.49 1.236-2.399 2.8-2.399.983 0 2.056.344 2.89.896l-.716 1.281c-.758-.463-1.563-.744-2.219-.744-.699 0-1.101.327-1.101.788v.029c0 .567.848.806 1.771 1.103 1.146.358 2.443.879 2.443 2.296v.029c0 1.652-1.281 2.472-2.92 2.472-1.116-.001-2.354-.404-3.337-1.176M40.959 25.788v-4.142h-.998v-1.549h.998v-2.16h1.803v2.16h2.117v1.549h-2.117v3.858c0 .7.359.983.969.983.402 0 .76-.09 1.119-.268v1.475c-.448.253-.955.403-1.624.403-1.328.002-2.267-.58-2.267-2.309M45.297 24.061v-.031c0-2.249 1.594-4.098 3.842-4.098 2.504 0 3.771 1.969 3.771 4.231 0 .164-.015.329-.029.507h-5.78c.192 1.281 1.101 1.996 2.264 1.996.879 0 1.504-.328 2.13-.938l1.059.938c-.744.896-1.772 1.475-3.219 1.475-2.28 0-4.038-1.653-4.038-4.08m5.826-.583c-.119-1.161-.805-2.07-1.996-2.07-1.104 0-1.879.849-2.043 2.07h4.039z"/><defs><path id="SVGID_3_" d="M12.172 31.694v13.509h8.538v-2.328h-6.158v-3.37h5.256v-2.219h-5.256v-3.265h6.158v-2.327z"/></defs><clipPath id="SVGID_4_"><use xlink:href="#SVGID_3_" overflow="visible"/></clipPath><linearGradient id="SVGID_5_" gradientUnits="userSpaceOnUse" x1="45.828" y1="661.076" x2="46.828" y2="661.076" gradientTransform="matrix(0 -13.1203 -13.1203 0 8689.977 646.063)"><stop offset="0" stop-color="#008594"/><stop offset=".65" stop-color="#00bacd"/><stop offset="1" stop-color="#00bacd"/></linearGradient><path clip-path="url(#SVGID_4_)" fill="url(#SVGID_5_)" d="M12.172 31.694h8.538v13.509h-8.538z"/><g><defs><path id="SVGID_6_" d="M29.125 31.694l-2.383 4.276-2.382-4.276h-2.706l3.753 6.593-3.998 6.916h2.698l2.635-4.615 2.628 4.615h2.713l-4.122-6.916 3.868-6.593z"/></defs><clipPath id="SVGID_7_"><use xlink:href="#SVGID_6_" overflow="visible"/></clipPath><linearGradient id="SVGID_8_" gradientUnits="userSpaceOnUse" x1="45.828" y1="661.076" x2="46.828" y2="661.076" gradientTransform="matrix(0 -13.1203 -13.1203 0 8700.29 646.063)"><stop offset="0" stop-color="#008594"/><stop offset=".65" stop-color="#00bacd"/><stop offset="1" stop-color="#00bacd"/></linearGradient><path clip-path="url(#SVGID_7_)" fill="url(#SVGID_8_)" d="M21.409 31.694h10.674v13.509H21.409z"/></g><g><defs><path id="SVGID_9_" d="M35.385 34.021h2.605c.443 0 .84.109 1.183.336.224.135.397.313.515.532.123.271.188.608.188 1.009 0 .479-.152.9-.46 1.291-.315.391-.783.585-1.424.598h-2.606v-3.766zm-2.38-2.327v13.509h2.38v-5.088h2.686c1.365-.028 2.425-.491 3.144-1.373.69-.836 1.041-1.772 1.041-2.79 0-.747-.139-1.409-.409-1.956-.264-.578-.613-1.031-1.035-1.338-.498-.405-1-.679-1.506-.816a7.31 7.31 0 0 0-1.484-.147h-4.817z"/></defs><clipPath id="SVGID_10_"><use xlink:href="#SVGID_9_" overflow="visible"/></clipPath><linearGradient id="SVGID_11_" gradientUnits="userSpaceOnUse" x1="45.828" y1="661.076" x2="46.828" y2="661.076" gradientTransform="matrix(0 -13.1203 -13.1203 0 8711.172 646.063)"><stop offset="0" stop-color="#008594"/><stop offset=".65" stop-color="#00bacd"/><stop offset="1" stop-color="#00bacd"/></linearGradient><path clip-path="url(#SVGID_10_)" fill="url(#SVGID_11_)" d="M33.005 31.694h9.25v13.509h-9.25z"/></g><g><defs><path id="SVGID_12_" d="M46.952 42.613l-.015-.008a2.054 2.054 0 0 1-.719-.586l-.011-.016c-.222-.247-.367-.58-.442-.995-.089-.436-.132-1.297-.132-2.561s.046-2.132.134-2.586c.073-.396.219-.723.44-.971l.011-.013c.182-.241.424-.446.721-.607.289-.154.645-.236 1.055-.25.416.014.779.096 1.072.246.287.163.518.366.688.604l.015.021c.221.249.375.58.457.974.084.449.127 1.319.127 2.583s-.043 2.125-.127 2.561c-.082.412-.236.745-.457.995l-.015.021c-.17.236-.397.433-.69.587-.299.177-.658.264-1.07.264-.407-.001-.758-.088-1.042-.263m-1.575-10.254c-.699.487-1.218 1.054-1.541 1.681-.202.34-.355.784-.451 1.322-.091.531-.134 1.54-.134 3.086 0 1.519.043 2.521.134 3.064.049.29.109.541.189.745.072.182.16.375.258.581.32.636.842 1.201 1.543 1.677.7.502 1.582.77 2.617.795h.012c1.046-.025 1.936-.293 2.637-.793.69-.476 1.196-1.038 1.51-1.667.226-.343.384-.793.47-1.347.078-.54.114-1.538.114-3.056 0-1.539-.036-2.544-.114-3.077-.086-.538-.244-.983-.47-1.324-.312-.631-.818-1.196-1.506-1.684-.707-.504-1.596-.763-2.65-.776-1.037.015-1.919.273-2.618.773"/></defs><clipPath id="SVGID_13_"><use xlink:href="#SVGID_12_" overflow="visible"/></clipPath><linearGradient id="SVGID_14_" gradientUnits="userSpaceOnUse" x1="45.829" y1="661.077" x2="46.829" y2="661.077" gradientTransform="matrix(0 -13.1201 -13.1201 0 8721.39 646.055)"><stop offset="0" stop-color="#008594"/><stop offset=".65" stop-color="#00bacd"/><stop offset="1" stop-color="#00bacd"/></linearGradient><path clip-path="url(#SVGID_13_)" fill="url(#SVGID_14_)" d="M43.251 31.587h9.483v13.724h-9.483z"/></g><g><defs><path id="SVGID_15_" d="M0 0h63.54v72.838H0z"/></defs><clipPath id="SVGID_16_"><use xlink:href="#SVGID_15_" overflow="visible"/></clipPath><path clip-path="url(#SVGID_16_)" fill="#77BC1F" d="M11.074 11.058L9.305 9.289c12.388-12.385 32.544-12.387 44.929 0l-1.768 1.769c-11.411-11.412-29.981-11.411-41.392 0"/></g><g><defs><path id="SVGID_17_" d="M0 0h63.541v72.838H0z"/></defs><clipPath id="SVGID_18_"><use xlink:href="#SVGID_17_" overflow="visible"/></clipPath><path clip-path="url(#SVGID_18_)" fill="#007DA4" d="M10.216 51.551c-4.981-5.413-7.715-12.394-7.715-19.796 0-7.818 3.044-15.168 8.572-20.694l-1.768-1.77C3.304 15.293 0 23.268 0 31.755c0 7.284 2.441 14.19 6.927 19.796h3.289z"/><path clip-path="url(#SVGID_18_)" fill="#00837B" d="M53.324 51.551h3.291c4.484-5.605 6.926-12.512 6.926-19.796 0-8.487-3.305-16.465-9.307-22.466l-1.768 1.769c5.529 5.529 8.572 12.879 8.572 20.697.001 7.401-2.731 14.383-7.714 19.796"/><path clip-path="url(#SVGID_18_)" fill="#717271" d="M16.295 61.216v-.01c0-.555.45-.845 1.106-.845.33 0 .56.045.79.109v-.08c0-.46-.28-.7-.765-.7-.305 0-.545.076-.786.186l-.115-.315c.285-.13.561-.22.941-.22.365 0 .65.1.835.285.18.181.27.431.27.761v1.58h-.38v-.385c-.18.229-.475.439-.93.439-.486 0-.966-.275-.966-.805m1.901-.2v-.239c-.19-.056-.44-.11-.755-.11-.481 0-.756.21-.756.52v.011c0 .324.301.515.651.515.475-.002.86-.287.86-.697M19.636 59.38h.385v.45c.17-.28.44-.505.885-.505.626 0 .991.42.991 1.035v1.605h-.385v-1.511c0-.479-.26-.78-.716-.78-.445 0-.775.325-.775.811v1.48h-.385V59.38zM25.858 61.691c.355 0 .605-.146.815-.366l.24.215c-.26.291-.575.485-1.065.485-.711 0-1.291-.545-1.291-1.35 0-.75.525-1.351 1.241-1.351.765 0 1.205.61 1.205 1.37 0 .035 0 .075-.005.135h-2.051c.055.547.456.862.911.862m.755-1.17c-.045-.47-.315-.87-.825-.87-.445 0-.786.37-.841.87h1.666zM27.548 59.38h.425l.871 2.146.875-2.146h.415l-1.125 2.606h-.341zM31.979 61.691c.355 0 .605-.146.815-.366l.241.215c-.261.291-.576.485-1.065.485-.71 0-1.291-.545-1.291-1.35 0-.75.525-1.351 1.241-1.351.765 0 1.206.61 1.206 1.37 0 .035 0 .075-.006.135h-2.051c.055.547.455.862.91.862m.755-1.17c-.045-.47-.315-.87-.825-.87-.445 0-.786.37-.841.87h1.666zM34.05 59.38h.385v.45c.17-.28.44-.505.886-.505.625 0 .99.42.99 1.035v1.605h-.385v-1.511c0-.479-.26-.78-.717-.78-.444 0-.774.325-.774.811v1.48h-.385V59.38zM37.516 61.28v-1.56h-.359v-.339h.359V58.6h.384v.781h.82v.339h-.82v1.511c0 .315.176.431.436.431.13 0 .24-.025.375-.091v.331a.98.98 0 0 1-.465.109c-.416 0-.73-.205-.73-.731M41.786 61.471v.495h-.385v-3.651h.385V59.9c.21-.31.515-.575.991-.575.619 0 1.234.49 1.234 1.341v.01c0 .845-.609 1.345-1.234 1.345-.48 0-.79-.26-.991-.55m1.831-.79v-.01c0-.61-.42-1-.91-1-.48 0-.936.404-.936.995v.01c0 .6.455 1 .936 1 .5 0 .91-.37.91-.995M44.697 62.651l.131-.305a.815.815 0 0 0 .404.095c.23 0 .375-.12.53-.485l-1.175-2.576h.425l.94 2.156.83-2.156h.41l-1.086 2.672c-.22.534-.47.729-.859.729a1.18 1.18 0 0 1-.55-.13"/><path clip-path="url(#SVGID_18_)" fill="#555759" d="M11.506 66.306h1.221l1.531 4.76 1.578-4.78h.954l1.577 4.78 1.533-4.76h1.184l-2.238 6.466h-.973l-1.578-4.613-1.578 4.613h-.972zM23.928 72.728v-.598c-.33.396-.834.697-1.568.697-.918 0-1.726-.521-1.726-1.494v-.019c0-1.074.835-1.587 1.964-1.587.587 0 .964.08 1.338.202v-.093c0-.668-.422-1.037-1.192-1.037-.541 0-.944.12-1.385.304l-.303-.89a4.15 4.15 0 0 1 1.844-.405c1.431 0 2.128.753 2.128 2.048v2.871h-1.1zm.027-2.028a3.168 3.168 0 0 0-1.109-.194c-.698 0-1.11.286-1.11.753v.02c0 .458.412.715.935.715.734 0 1.284-.412 1.284-1.018V70.7zM25.496 72.094l.495-.751c.523.394 1.093.597 1.588.597.477 0 .753-.203.753-.524v-.018c0-.377-.514-.504-1.084-.679-.715-.202-1.514-.496-1.514-1.423v-.017c0-.919.762-1.479 1.726-1.479.605 0 1.266.211 1.779.55l-.439.79c-.468-.283-.964-.458-1.367-.458-.432 0-.68.201-.68.487v.017c0 .349.524.495 1.093.68.705.22 1.504.542 1.504 1.413v.018c0 1.019-.789 1.523-1.798 1.523a3.415 3.415 0 0 1-2.056-.726M30.249 71.388v-2.552h-.615v-.953h.615v-1.33h1.11v1.33h1.303v.953h-1.303v2.376c0 .431.22.605.597.605.247 0 .467-.053.686-.163v.908a1.938 1.938 0 0 1-.999.248c-.817.001-1.394-.358-1.394-1.422M32.918 70.324v-.019c0-1.386.982-2.523 2.368-2.523 1.541 0 2.322 1.212 2.322 2.605 0 .1-.011.202-.021.312h-3.56c.12.789.681 1.229 1.394 1.229.543 0 .928-.2 1.314-.577l.65.577c-.459.553-1.092.909-1.982.909-1.403.001-2.485-1.019-2.485-2.513m3.588-.358c-.072-.717-.494-1.275-1.229-1.275-.679 0-1.157.522-1.259 1.275h2.488z"/></g><g><defs><path id="SVGID_19_" d="M39.094 66.203c-.361.36-.572.813-.623 1.342l-.009.087h1.111l.015-.062c.057-.265.168-.464.33-.587a.77.77 0 0 1 .507-.185c.267.005.476.087.642.255a.938.938 0 0 1 .258.66c0 .27-.081.482-.25.648-.165.174-.396.258-.704.258h-.411v1.029h.491c.276 0 .497.082.676.258.179.175.272.432.278.757-.006.319-.1.569-.279.742a.869.869 0 0 1-.652.273c-.244 0-.434-.064-.578-.203a1.323 1.323 0 0 1-.343-.526l-.019-.052h-1.11l.017.093c.108.591.347 1.047.707 1.358.367.315.791.475 1.266.475.607-.007 1.113-.211 1.503-.604.396-.385.597-.919.606-1.588 0-.298-.064-.591-.193-.867a1.75 1.75 0 0 0-.562-.646c.244-.186.422-.395.527-.625.1-.256.146-.523.146-.797a2.104 2.104 0 0 0-.543-1.417c-.373-.41-.879-.62-1.51-.627a1.802 1.802 0 0 0-1.294.551"/></defs><clipPath id="SVGID_20_"><use xlink:href="#SVGID_19_" overflow="visible"/></clipPath><linearGradient id="SVGID_21_" gradientUnits="userSpaceOnUse" x1="82.757" y1="661.138" x2="83.757" y2="661.138" gradientTransform="matrix(0 -7.194 -7.194 0 4796.695 668.734)"><stop offset="0" stop-color="#008594"/><stop offset=".65" stop-color="#00bacd"/><stop offset="1" stop-color="#00bacd"/></linearGradient><path clip-path="url(#SVGID_20_)" fill="url(#SVGID_21_)" d="M38.423 65.651h4.099v7.172h-4.099z"/></g><g><defs><path id="SVGID_22_" d="M44.273 70.702v-.563c.012-.645.291-.965.857-.978.562.013.848.333.864.978v.562c-.017.651-.302.972-.864.978-.566-.006-.845-.326-.857-.977m-.5-4.518c-.401.357-.611.871-.617 1.528v3.048c.006.653.216 1.166.617 1.523.377.353.836.533 1.357.54a1.992 1.992 0 0 0 1.379-.54c.387-.359.588-.871.602-1.527v-.629c.005-.684-.152-1.195-.467-1.52a1.613 1.613 0 0 0-1.174-.476l-.052-.002c-.356 0-.741.063-1.146.185v-.537c.012-.649.291-.97.853-.979.403.005.665.178.804.527l.021.05h1.141l-.017-.095c-.1-.523-.331-.934-.689-1.217a2.057 2.057 0 0 0-1.254-.412c-.522 0-.981.18-1.358.533"/></defs><clipPath id="SVGID_23_"><use xlink:href="#SVGID_22_" overflow="visible"/></clipPath><linearGradient id="SVGID_24_" gradientUnits="userSpaceOnUse" x1="82.757" y1="661.138" x2="83.757" y2="661.138" gradientTransform="matrix(0 -7.194 -7.194 0 4801.36 668.734)"><stop offset="0" stop-color="#008594"/><stop offset=".65" stop-color="#00bacd"/><stop offset="1" stop-color="#00bacd"/></linearGradient><path clip-path="url(#SVGID_23_)" fill="url(#SVGID_24_)" d="M43.156 65.651h3.96v7.172h-3.96z"/></g><g><defs><path id="SVGID_25_" d="M49.02 70.702v-2.93c.012-.645.291-.965.859-.975.562.01.846.33.861.975v2.929c-.016.651-.299.972-.861.978-.568-.006-.848-.326-.859-.977m-.497-4.518c-.405.357-.614.871-.621 1.528v3.048c.007.653.216 1.166.619 1.523.375.353.832.533 1.355.54h.002a2 2 0 0 0 1.38-.54c.382-.359.587-.871.599-1.527v-3.044c-.012-.657-.217-1.17-.599-1.526a1.954 1.954 0 0 0-1.38-.534 1.908 1.908 0 0 0-1.355.532"/></defs><clipPath id="SVGID_26_"><use xlink:href="#SVGID_25_" overflow="visible"/></clipPath><linearGradient id="SVGID_27_" gradientUnits="userSpaceOnUse" x1="82.757" y1="661.139" x2="83.757" y2="661.139" gradientTransform="matrix(0 -7.194 -7.194 0 4806.11 668.734)"><stop offset="0" stop-color="#008594"/><stop offset=".65" stop-color="#00bacd"/><stop offset="1" stop-color="#00bacd"/></linearGradient><path clip-path="url(#SVGID_26_)" fill="url(#SVGID_27_)" d="M47.902 65.651h3.955v7.172h-3.955z"/></g></svg>