<?xml version="1.0" standalone="no"?>
<!DOCTYPE svg PUBLIC "-//W3C//DTD SVG 20010904//EN"
 "http://www.w3.org/TR/2001/REC-SVG-20010904/DTD/svg10.dtd">
<svg version="1.0" xmlns="http://www.w3.org/2000/svg"
 width="438.000000pt" height="438.000000pt" viewBox="0 0 438.000000 438.000000"
 preserveAspectRatio="xMidYMid meet">
<metadata>
Created by potrace 1.11, written by Peter Selinger 2001-2013
</metadata>
<g transform="translate(0.000000,438.000000) scale(0.100000,-0.100000)"
fill="#000000" stroke="none">
<path d="M2097 4374 c-1 -1 -41 -4 -88 -7 -47 -4 -106 -11 -130 -16 -24 -5
-60 -12 -79 -15 -111 -17 -339 -99 -489 -176 -167 -86 -412 -271 -511 -386
-107 -125 -135 -161 -195 -249 -151 -225 -241 -461 -300 -785 -3 -19 -9 -116
-12 -215 -5 -164 -1 -227 23 -385 22 -147 90 -355 166 -509 54 -109 201 -339
222 -347 7 -3 54 -3 104 -2 l92 3 -62 75 c-119 145 -213 307 -282 487 -36 92
-83 266 -92 337 -3 22 -8 48 -11 56 -12 33 -11 350 2 450 118 934 958 1610
1900 1526 286 -26 578 -129 815 -288 256 -172 463 -409 601 -689 70 -141 138
-351 155 -477 2 -20 9 -66 14 -102 9 -67 6 -371 -4 -425 -4 -16 -13 -68 -22
-114 -50 -273 -205 -586 -399 -806 l-27 -30 99 -3 c113 -3 99 -13 197 133 116
173 204 369 257 573 42 162 56 281 58 467 2 203 -11 311 -59 500 -113 448
-404 852 -801 1112 -238 156 -560 271 -834 299 -63 6 -303 13 -308 8z"/>
<path d="M926 3306 c7 -23 78 -231 158 -461 l52 -150 47 -3 c56 -4 44 -26 138
250 35 103 65 185 67 183 2 -2 36 -99 77 -217 l73 -213 49 -3 50 -3 45 133
c26 73 74 212 107 308 34 96 61 180 61 186 0 10 -105 13 -113 3 -5 -5 -123
-372 -132 -411 -4 -16 -10 -28 -14 -28 -3 0 -40 100 -81 223 l-75 222 -48 0
-47 0 -73 -222 c-39 -123 -75 -223 -78 -223 -3 0 -38 100 -77 223 l-72 223
-60 0 c-57 1 -60 0 -54 -20z"/>
<path d="M2749 3293 c-1 -5 -2 -33 -3 -63 -1 -53 -2 -55 -31 -60 -28 -5 -30
-8 -30 -50 0 -43 2 -45 28 -44 31 0 29 10 32 -146 1 -63 3 -128 4 -143 1 -18
14 -42 35 -63 30 -30 41 -34 84 -34 27 0 63 3 80 6 26 5 31 11 34 44 5 55 3
58 -50 52 -70 -6 -76 5 -77 146 -1 64 0 122 3 129 2 8 22 11 56 8 30 -1 57 0
62 4 5 3 9 25 9 49 l1 42 -62 0 c-70 0 -71 1 -69 78 l1 52 -53 0 c-29 0 -54
-3 -54 -7z"/>
<path d="M1920 3164 c-30 -8 -58 -18 -63 -23 -7 -7 9 -68 22 -83 4 -4 29 -1
56 8 86 25 175 2 189 -49 11 -42 8 -46 -25 -37 -17 5 -66 8 -108 7 -127 -4
-189 -62 -179 -169 8 -81 67 -128 162 -128 63 0 101 12 134 42 l22 21 0 -30
c0 -29 1 -30 53 -29 l52 2 3 157 c3 212 -12 263 -94 302 -47 22 -155 27 -224
9z m179 -260 c27 -6 31 -11 31 -39 0 -57 -74 -105 -142 -91 -81 16 -93 101
-18 129 21 8 92 8 129 1z"/>
<path d="M2389 3157 c-58 -30 -82 -65 -82 -121 0 -77 32 -107 157 -148 94 -30
115 -57 76 -93 -29 -26 -90 -23 -153 9 l-52 26 -23 -26 c-13 -15 -22 -34 -20
-43 3 -15 94 -67 121 -68 133 -10 184 6 225 67 19 29 23 44 19 85 -4 42 -10
54 -40 81 -20 17 -56 36 -79 43 -89 27 -128 50 -128 76 0 47 77 58 151 21 18
-9 35 -16 40 -16 7 0 52 71 47 75 -2 1 -23 13 -48 25 -64 33 -155 36 -211 7z"/>
<path d="M3156 3166 c-51 -19 -104 -71 -129 -125 -24 -54 -26 -159 -4 -211 55
-127 209 -180 339 -117 85 42 94 62 42 100 -23 18 -25 18 -52 -1 -79 -56 -178
-41 -218 34 -10 18 -16 36 -13 38 3 3 80 6 171 6 121 1 168 5 171 14 10 26 -5
103 -31 156 -37 76 -89 111 -173 116 -41 3 -78 -1 -103 -10z m134 -91 c29 -15
41 -31 60 -79 l10 -26 -121 0 -121 0 7 28 c18 73 99 111 165 77z"/>
<path d="M1048 2472 l-28 -3 0 -403 0 -402 255 0 255 0 0 71 0 70 -183 0 -184
0 0 98 -1 97 39 1 c22 0 93 0 159 1 l120 0 0 69 0 69 -158 0 -158 0 -1 95 -1
95 184 0 184 0 0 70 0 70 -137 0 c-76 1 -178 2 -228 3 -49 1 -102 1 -117 -1z"/>
<path d="M2078 2472 l-47 -3 -67 -120 c-76 -138 -68 -137 -133 -17 -83 154
-64 138 -159 138 -83 0 -83 0 -71 -22 7 -13 57 -101 111 -196 l99 -173 -115
-201 c-64 -110 -116 -203 -116 -207 0 -4 35 -7 78 -7 84 0 80 -3 124 76 115
204 113 202 128 169 5 -13 38 -73 74 -134 l63 -110 82 -1 c44 0 81 2 81 5 0 2
-54 96 -120 207 l-120 201 82 142 c46 78 89 154 97 169 8 15 17 29 20 32 4 3
11 16 17 30 11 24 10 25 -25 25 -20 0 -57 -1 -83 -3z"/>
<path d="M2318 2472 l-48 -3 0 -402 0 -403 70 0 c64 0 70 2 71 20 0 12 0 80 0
152 l0 131 105 2 c122 1 169 12 219 53 81 67 112 209 68 310 -23 51 -87 111
-134 127 -33 10 -258 19 -351 13z m319 -162 c56 -34 57 -128 1 -175 -27 -23
-37 -25 -128 -25 l-98 0 -1 110 0 110 97 0 c79 0 103 -4 129 -20z"/>
<path d="M3070 2465 c-50 -16 -128 -83 -153 -130 -26 -51 -34 -125 -31 -291 3
-182 4 -191 38 -249 31 -52 76 -92 134 -117 53 -24 164 -26 217 -4 79 33 144
103 166 178 11 36 13 393 3 424 -26 78 -85 148 -152 180 -49 23 -164 28 -222
9z m181 -161 c48 -44 54 -69 54 -239 0 -139 -2 -164 -19 -191 -37 -62 -106
-84 -172 -55 -67 30 -78 60 -82 227 -5 168 5 210 55 254 33 29 41 32 89 28 34
-3 62 -12 75 -24z"/>
<path d="M2771 775 c-1 -113 3 -133 24 -115 8 7 21 7 39 0 77 -29 133 77 70
135 -27 25 -80 27 -96 3 -8 -14 -9 -12 -11 41 -1 19 -7 36 -14 38 -8 3 -11
-26 -12 -102z m116 3 c33 -42 12 -98 -36 -98 -46 0 -67 44 -43 88 14 25 63 31
79 10z"/>
<path d="M2540 836 c0 -13 -6 -27 -12 -30 -10 -5 -10 -7 0 -12 7 -4 12 -27 12
-64 0 -65 16 -84 58 -73 25 6 20 23 -8 23 -22 0 -26 12 -25 65 1 36 4 41 30
46 30 6 28 9 -20 24 -8 2 -12 13 -10 25 2 13 -1 20 -11 20 -8 0 -14 -10 -14
-24z"/>
<path d="M1307 812 c-40 -5 -28 -28 12 -24 30 3 61 -11 61 -28 0 -4 -19 -7
-41 -7 -51 1 -83 -30 -70 -66 11 -30 56 -45 84 -28 14 9 22 10 25 3 2 -6 9 -9
17 -6 9 4 12 23 10 65 -3 81 -24 101 -98 91z m73 -96 c0 -31 -60 -55 -80 -32
-5 8 -8 21 -4 30 8 21 84 23 84 2z"/>
<path d="M1526 813 c-3 -3 -18 -6 -34 -5 l-28 1 1 -77 c1 -49 5 -77 13 -80 8
-2 12 11 12 42 0 25 -1 47 -2 49 -1 1 4 12 11 25 15 28 56 29 71 2 6 -10 10
-36 9 -57 -2 -61 -1 -67 14 -54 20 16 15 115 -6 139 -16 18 -50 26 -61 15z"/>
<path d="M1803 808 c-41 -20 -53 -100 -19 -134 32 -31 116 -23 116 11 0 14 -3
14 -31 0 -28 -15 -33 -15 -55 0 -45 29 -28 43 49 40 43 -2 47 0 47 20 0 50
-61 86 -107 63z m72 -49 c0 -8 -15 -13 -42 -15 -48 -2 -53 6 -22 37 18 18 23
19 42 6 12 -8 22 -20 22 -28z"/>
<path d="M2072 799 c-12 -12 -24 -34 -27 -50 -12 -55 -31 -54 -52 3 -11 30
-27 54 -37 56 -13 3 -12 -7 11 -60 49 -115 56 -117 93 -23 13 33 28 66 33 73
17 23 0 24 -21 1z"/>
<path d="M2170 807 c-28 -14 -46 -63 -36 -102 10 -38 65 -62 105 -45 50 20 39
40 -12 21 -18 -7 -30 -5 -46 5 -38 27 -26 41 34 39 31 -1 57 1 59 4 12 18 -9
63 -35 76 -34 18 -37 18 -69 2z m76 -38 c9 -16 -12 -26 -49 -25 -39 2 -48 28
-15 43 23 11 51 3 64 -18z"/>
<path d="M2381 811 c-7 -5 -22 -6 -32 -4 -17 5 -19 -1 -19 -76 0 -107 25 -112
29 -6 2 49 32 81 62 65 15 -9 19 -22 19 -63 0 -59 14 -94 26 -64 12 33 -2 129
-21 143 -21 16 -44 18 -64 5z"/>
<path d="M2992 748 c40 -83 42 -112 6 -116 -37 -4 -36 -22 2 -22 34 0 47 16
80 100 12 30 26 63 31 72 12 24 11 28 -5 28 -8 0 -24 -27 -37 -62 l-23 -62
-22 49 c-13 28 -23 56 -23 63 -1 6 -10 12 -20 12 -18 0 -17 -5 11 -62z"/>
<path d="M2652 419 c-33 -21 -58 -70 -48 -94 8 -22 53 -11 77 19 10 13 26 23
34 22 22 -3 55 -33 55 -49 0 -27 -31 -57 -59 -57 -28 0 -30 -8 -22 -61 1 -4
12 -6 26 -6 34 0 55 -20 55 -52 0 -59 -48 -83 -87 -44 -18 17 -37 26 -56 25
-16 0 -31 -2 -32 -4 -9 -8 35 -84 54 -96 28 -16 101 -18 130 -3 59 32 82 143
39 188 -21 23 -21 23 -3 37 25 18 26 103 2 140 -33 50 -113 67 -165 35z"/>
<path d="M2934 419 c-47 -31 -53 -53 -54 -201 l0 -137 31 -36 c27 -31 37 -35
78 -35 95 0 132 47 125 158 -3 60 -7 70 -35 96 -28 25 -38 28 -80 24 -48 -5
-49 -4 -49 23 0 52 57 74 86 34 17 -23 74 -16 74 8 0 23 -52 77 -77 78 -10 1
-30 2 -45 3 -15 2 -40 -5 -54 -15z m111 -229 c6 -18 -1 -85 -9 -99 -11 -16
-45 -19 -65 -4 -30 21 -30 106 0 127 25 17 65 4 74 -24z"/>
<path d="M3233 426 c-57 -26 -68 -55 -69 -190 0 -67 3 -134 8 -151 13 -49 51
-75 110 -75 44 0 54 4 84 34 l34 34 0 137 c0 143 -8 177 -50 203 -31 19 -83
23 -117 8z m81 -75 c13 -11 16 -36 16 -132 0 -108 -2 -119 -21 -132 -24 -17
-56 -11 -68 12 -14 26 -10 228 5 249 15 21 45 22 68 3z"/>
<path d="M980 393 c0 -3 12 -38 26 -77 14 -39 27 -78 29 -86 2 -8 20 -59 39
-114 20 -54 36 -100 36 -102 0 -2 15 -4 33 -4 l33 0 45 136 45 137 45 -133
c45 -134 62 -159 98 -140 13 7 121 294 136 363 6 25 5 27 -29 27 l-35 0 -42
-135 c-23 -74 -45 -135 -48 -135 -3 0 -26 61 -50 136 l-43 135 -31 -3 c-30 -3
-32 -7 -73 -132 -24 -71 -45 -131 -48 -133 -2 -3 -24 55 -48 129 l-43 133 -38
2 c-20 1 -37 0 -37 -4z"/>
<path d="M2117 381 c-10 -4 -18 -10 -18 -14 5 -45 -1 -67 -16 -67 -12 0 -18
-8 -19 -25 -2 -22 6 -30 29 -26 4 0 7 -5 7 -11 1 -7 2 -54 3 -104 2 -109 14
-127 83 -126 56 2 64 6 64 41 0 25 -3 27 -31 23 -18 -3 -34 0 -39 7 -4 7 -8
46 -9 87 -2 79 -3 77 52 76 23 -1 27 3 27 29 0 19 -5 29 -15 30 -8 1 -25 2
-37 3 -19 1 -24 8 -26 37 -3 39 -21 52 -55 40z"/>
<path d="M1582 297 c-27 -8 -31 -14 -26 -31 10 -33 16 -35 64 -26 53 10 93 -5
98 -35 3 -18 -2 -20 -53 -17 -31 2 -69 -1 -84 -7 -35 -15 -59 -58 -54 -96 4
-35 44 -74 76 -76 46 -3 81 2 95 14 12 9 16 9 19 0 3 -7 20 -13 39 -13 l34 0
1 63 c3 152 -4 185 -47 214 -31 20 -111 25 -162 10z m138 -172 c18 -22 -25
-65 -67 -65 -57 0 -80 55 -31 77 26 11 84 5 98 -12z"/>
<path d="M1880 293 c-26 -13 -37 -27 -44 -54 -12 -51 11 -83 77 -105 67 -21
85 -37 67 -59 -15 -18 -57 -16 -104 6 -25 12 -30 11 -42 -6 -20 -26 -18 -33
14 -49 27 -14 77 -20 130 -17 36 2 72 44 72 86 0 43 -20 62 -92 90 -39 15 -53
26 -53 40 0 26 44 32 84 12 27 -14 30 -13 40 10 14 31 14 30 -9 43 -39 21
-103 22 -140 3z"/>
<path d="M2340 292 c-67 -35 -95 -135 -60 -213 17 -36 73 -71 117 -71 70 -1
82 2 110 26 27 24 27 26 11 42 -17 17 -20 17 -53 1 -20 -9 -42 -17 -50 -17
-27 0 -63 22 -74 46 l-11 24 73 1 c39 1 78 1 86 -1 7 -1 25 1 38 5 23 5 24 9
18 43 -21 112 -112 162 -205 114z m112 -59 c8 -10 18 -26 21 -35 7 -19 3 -20
-63 -20 -75 0 -78 1 -73 22 12 46 86 66 115 33z"/>
</g>
</svg>
