<?xml version="1.0" encoding="utf-8"?>
<!-- Generator: Adobe Illustrator 16.0.0, SVG Export Plug-In . SVG Version: 6.00 Build 0)  -->
<!DOCTYPE svg PUBLIC "-//W3C//DTD SVG 1.1//EN" "http://www.w3.org/Graphics/SVG/1.1/DTD/svg11.dtd">
<svg version="1.1" id="Layer_1" xmlns="http://www.w3.org/2000/svg" xmlns:xlink="http://www.w3.org/1999/xlink" x="0px" y="0px"
	 width="170.1px" height="27px" viewBox="0 0 170.1 27" enable-background="new 0 0 170.1 27" xml:space="preserve">
<g>
	<defs>
		<rect id="SVGID_1_" x="0.014" y="0.355" width="169.987" height="26.29"/>
	</defs>
	<clipPath id="SVGID_2_">
		<use xlink:href="#SVGID_1_"  overflow="visible"/>
	</clipPath>
	<path clip-path="url(#SVGID_2_)" fill="#010101" d="M170,2.876c0.01-1.382-1.102-2.511-2.484-2.521
		c-1.377-0.013-2.507,1.097-2.516,2.479v2.523h2.479C168.859,5.369,169.99,4.258,170,2.876"/>
</g>
<g>
	<defs>
		<rect id="SVGID_3_" y="0.354" width="170" height="26.292"/>
	</defs>
	<clipPath id="SVGID_4_">
		<use xlink:href="#SVGID_3_"  overflow="visible"/>
	</clipPath>
	<path clip-path="url(#SVGID_4_)" fill="#010101" d="M160.167,2.315c-1.202,0.679-1.623,2.207-0.944,3.411
		c0.682,1.199,2.209,1.62,3.412,0.941l2.183-1.26c0,0-1.236-2.14-1.241-2.149C162.896,2.054,161.367,1.633,160.167,2.315"/>
	<path clip-path="url(#SVGID_4_)" fill="#010101" d="M164.599,11.111c1.19,0.701,2.72,0.304,3.423-0.888
		c0.701-1.19,0.302-2.724-0.888-3.425l-2.186-1.26c0,0-1.233,2.136-1.24,2.148C163.01,8.876,163.405,10.41,164.599,11.111"/>
	<path clip-path="url(#SVGID_4_)" fill="#010101" d="M86.23,14.915h-3.341V6.477h3.341c2.712,0,4.421,1.843,4.421,4.23
		C90.651,13.067,88.942,14.915,86.23,14.915 M86.446,3.762h-6.512v19.807h2.955v-5.915h3.529c4.233,0,7.191-3.066,7.191-6.946
		C93.609,6.801,90.651,3.762,86.446,3.762"/>
	<path clip-path="url(#SVGID_4_)" fill="#010101" d="M138.949,20.895c-2.429-0.029-4.091-1.929-4.119-4.312
		c-0.025-2.348,1.876-4.281,4.104-4.274c2.263,0,4.134,1.956,4.122,4.318C143.045,18.966,141.194,20.924,138.949,20.895
		 M138.951,9.556c-3.953-0.013-7.095,3.127-7.065,7.065c0.026,3.94,3.129,7.035,7.046,7.035c3.923,0,7.057-3.104,7.074-7.015
		C146.024,12.692,142.912,9.568,138.951,9.556"/>
	<path clip-path="url(#SVGID_4_)" fill="#010101" d="M121.862,14.52c-0.103-2.443-1.603-4.358-4.153-4.855
		c-3.58-0.692-5.377,1.753-5.377,1.753c-0.024-0.564-0.041-1.078-0.064-1.56h-2.852V23.35h2.969v-7.952
		c0.109-2.482,2.316-3.886,4.752-3.012c1.231,0.442,1.74,1.518,1.77,2.747v8.227h3.062v-0.377
		C121.94,20.163,121.979,17.338,121.862,14.52"/>
	<path clip-path="url(#SVGID_4_)" fill="#010101" d="M160.002,22.983c-0.023-2.82,0.009-5.648-0.104-8.465
		c-0.103-2.441-1.602-4.358-4.156-4.853c-3.577-0.693-5.377,1.749-5.377,1.749c-0.025-0.562-0.037-1.075-0.06-1.557h-2.854v13.49
		h2.968v-7.949c0.11-2.482,2.317-3.89,4.753-3.01c1.231,0.439,1.739,1.516,1.77,2.741v8.228h3.061
		C160.002,23.358,160.004,23.097,160.002,22.983"/>
	<path clip-path="url(#SVGID_4_)" fill="#010101" d="M128.187,19.112c-0.044-0.321-0.085-0.646-0.087-0.967
		c-0.01-1.728,0-5.682,0-5.682h2.822V9.806h-2.85V5.015l-2.993,1.623v3.193h-2.229v2.635h2.266v0.761
		c0,1.443-0.014,2.881,0.008,4.322c0.01,0.772,0.036,1.542,0.131,2.307c0.156,1.233,0.604,2.328,1.799,2.93
		c1.217,0.61,2.521,0.646,3.884,0.582v-2.726c-0.655-0.037-0.874-0.061-1.239-0.095C128.741,20.455,128.313,20.05,128.187,19.112"/>
	<path clip-path="url(#SVGID_4_)" fill="#010101" d="M96.816,15.065c0.277-1.574,1.957-2.825,3.763-2.903
		c2.394-0.102,3.851,1.324,4.108,2.903H96.816z M99.746,9.633c-5.873,0.884-7.509,7.396-4.674,11.288
		c2.373,3.259,7.344,3.402,9.925,1.577c0.726-0.513,1.347-1.112,1.835-1.858l-2.436-1.349c-1.221,1.593-2.881,2.059-4.913,1.552
		c-1.525-0.382-2.628-1.635-2.849-3.212h11.096c0.123-0.94,0.061-1.81-0.117-2.661C106.868,11.383,103.742,9.033,99.746,9.633"/>
	<path clip-path="url(#SVGID_4_)" fill="#010101" d="M0.014,13.457h3.062c2.212,0,3.692,0.747,3.692,2.942
		c0,2.104-1.494,3.095-3.692,3.095H1.279v3.963H0.014V13.457z M2.926,18.457c1.737,0,2.577-0.639,2.577-2.058
		c0-1.448-0.855-1.92-2.577-1.92H1.279v3.978H2.926z"/>
	<path clip-path="url(#SVGID_4_)" fill="#010101" d="M11.207,15.866c1.815,0,3.431,1.415,3.431,3.902
		c0,2.453-1.616,3.872-3.431,3.872c-1.815,0-3.431-1.419-3.431-3.872C7.776,17.281,9.392,15.866,11.207,15.866 M11.207,22.603
		c1.28,0,2.134-1.144,2.134-2.835c0-1.708-0.854-2.866-2.134-2.866c-1.265,0-2.134,1.158-2.134,2.866
		C9.073,21.459,9.942,22.603,11.207,22.603"/>
	<path clip-path="url(#SVGID_4_)" fill="#010101" d="M15.657,16.048h1.282l1.098,4.284c0.168,0.701,0.304,1.37,0.443,2.057h0.061
		c0.165-0.687,0.319-1.37,0.501-2.057l1.144-4.284h1.221l1.158,4.284c0.183,0.701,0.351,1.37,0.519,2.057h0.06
		c0.168-0.687,0.305-1.355,0.458-2.057l1.083-4.284h1.187l-1.981,7.408h-1.525L21.3,19.479c-0.185-0.703-0.321-1.39-0.503-2.137
		h-0.061c-0.168,0.747-0.321,1.45-0.519,2.15l-1.036,3.964h-1.465L15.657,16.048z"/>
	<path clip-path="url(#SVGID_4_)" fill="#010101" d="M30.22,15.866c1.891,0,2.96,1.354,2.96,3.474c0,0.262-0.017,0.504-0.047,0.688
		h-5.001c0.091,1.601,1.052,2.607,2.47,2.607c0.701,0,1.295-0.228,1.845-0.578l0.443,0.821c-0.642,0.411-1.433,0.763-2.441,0.763
		c-1.981,0-3.553-1.448-3.553-3.871C26.896,17.341,28.529,15.866,30.22,15.866 M32.082,19.204c0-1.508-0.672-2.348-1.83-2.348
		c-1.037,0-1.983,0.854-2.137,2.348H32.082z"/>
	<path clip-path="url(#SVGID_4_)" fill="#010101" d="M35.009,16.048h1.037l0.107,1.34h0.044c0.503-0.929,1.267-1.523,2.104-1.523
		c0.321,0,0.55,0.047,0.793,0.151l-0.243,1.1c-0.246-0.077-0.411-0.124-0.718-0.124c-0.625,0-1.372,0.457-1.873,1.708v4.757h-1.251
		V16.048z"/>
	<path clip-path="url(#SVGID_4_)" fill="#010101" d="M42.921,15.866c1.891,0,2.96,1.354,2.96,3.474c0,0.262-0.018,0.504-0.047,0.688
		h-5.001c0.091,1.601,1.052,2.607,2.47,2.607c0.701,0,1.295-0.228,1.845-0.578l0.443,0.821c-0.643,0.411-1.433,0.763-2.441,0.763
		c-1.981,0-3.553-1.448-3.553-3.871C39.598,17.341,41.23,15.866,42.921,15.866 M44.784,19.204c0-1.508-0.672-2.348-1.83-2.348
		c-1.037,0-1.983,0.854-2.137,2.348H44.784z"/>
	<path clip-path="url(#SVGID_4_)" fill="#010101" d="M50.394,15.866c0.852,0,1.417,0.318,2.074,0.854l-0.061-1.265v-2.853h1.265
		v10.855h-1.036l-0.107-0.869h-0.047c-0.579,0.564-1.372,1.051-2.241,1.051c-1.861,0-3.066-1.4-3.066-3.871
		C47.175,17.359,48.701,15.866,50.394,15.866 M50.516,22.588c0.686,0,1.28-0.336,1.891-1.022v-3.871
		c-0.626-0.563-1.19-0.777-1.801-0.777c-1.187,0-2.134,1.143-2.134,2.834C48.472,21.52,49.219,22.588,50.516,22.588"/>
	<path clip-path="url(#SVGID_4_)" fill="#010101" d="M59.254,12.602h1.251v2.957l-0.032,1.343c0.672-0.596,1.494-1.036,2.317-1.036
		c1.922,0,2.944,1.477,2.944,3.764c0,2.531-1.511,4.01-3.203,4.01c-0.686,0-1.465-0.335-2.118-0.915h-0.047l-0.107,0.733h-1.005
		V12.602z M62.317,22.588c1.22,0,2.12-1.114,2.12-2.942c0-1.633-0.548-2.729-1.952-2.729c-0.626,0-1.279,0.35-1.98,1.007v3.885
		C61.159,22.375,61.831,22.588,62.317,22.588"/>
	<path clip-path="url(#SVGID_4_)" fill="#010101" d="M67.734,25.606c0.837,0,1.373-0.669,1.677-1.584l0.167-0.55l-2.973-7.424h1.297
		l1.509,4.1c0.229,0.642,0.489,1.404,0.717,2.09h0.062c0.211-0.671,0.425-1.433,0.622-2.09l1.329-4.1h1.219l-2.791,8.02
		c-0.518,1.463-1.28,2.577-2.774,2.577c-0.336,0-0.626-0.063-0.869-0.153l0.243-0.99C67.323,25.545,67.552,25.606,67.734,25.606"/>
</g>
</svg>
