<?xml version="1.0" encoding="utf-8"?>
<!-- Generator: Adobe Illustrator 16.0.0, SVG Export Plug-In . SVG Version: 6.00 Build 0)  -->
<!DOCTYPE svg PUBLIC "-//W3C//DTD SVG 1.1//EN" "http://www.w3.org/Graphics/SVG/1.1/DTD/svg11.dtd">
<svg version="1.1" id="Layer_1" xmlns="http://www.w3.org/2000/svg" xmlns:xlink="http://www.w3.org/1999/xlink" x="0px" y="0px"
	 width="63.541px" height="72.838px" viewBox="0 0 63.541 72.838" enable-background="new 0 0 63.541 72.838" xml:space="preserve">
<polygon fill="#555759" points="10.521,17.533 12.503,17.533 14.99,25.267 17.554,17.504 19.103,17.504 21.665,25.267 
	24.153,17.533 26.075,17.533 22.44,28.038 20.861,28.038 18.298,20.544 15.737,28.038 14.157,28.038 "/>
<g>
	<defs>
		<rect id="SVGID_1_" width="63.541" height="72.838"/>
	</defs>
	<clipPath id="SVGID_2_">
		<use xlink:href="#SVGID_1_"  overflow="visible"/>
	</clipPath>
	<path clip-path="url(#SVGID_2_)" fill="#555759" d="M30.694,27.963v-0.968c-0.536,0.64-1.357,1.132-2.548,1.132
		c-1.488,0-2.8-0.851-2.8-2.428v-0.03c0-1.742,1.355-2.577,3.188-2.577c0.954,0,1.565,0.134,2.175,0.327V23.27
		c0-1.087-0.685-1.683-1.937-1.683c-0.878,0-1.534,0.192-2.25,0.491l-0.491-1.445c0.864-0.388,1.713-0.655,2.994-0.655
		c2.325,0,3.458,1.221,3.458,3.321v4.664H30.694z M30.739,24.671c-0.462-0.179-1.102-0.314-1.803-0.314
		c-1.133,0-1.803,0.463-1.803,1.223v0.03c0,0.745,0.67,1.161,1.519,1.161c1.194,0,2.087-0.67,2.087-1.654V24.671z"/>
	<path clip-path="url(#SVGID_2_)" fill="#555759" d="M33.242,26.936l0.805-1.222c0.85,0.641,1.771,0.968,2.578,0.968
		c0.774,0,1.222-0.327,1.222-0.849v-0.03c0-0.609-0.835-0.82-1.759-1.104c-1.161-0.327-2.457-0.804-2.457-2.308v-0.03
		c0-1.49,1.236-2.399,2.8-2.399c0.983,0,2.056,0.344,2.89,0.896l-0.716,1.281c-0.758-0.463-1.563-0.744-2.219-0.744
		c-0.699,0-1.101,0.327-1.101,0.788v0.029c0,0.567,0.848,0.806,1.771,1.103c1.146,0.358,2.443,0.879,2.443,2.296v0.029
		c0,1.652-1.281,2.472-2.92,2.472C35.463,28.111,34.225,27.708,33.242,26.936"/>
	<path clip-path="url(#SVGID_2_)" fill="#555759" d="M40.959,25.788v-4.142h-0.998v-1.549h0.998v-2.16h1.803v2.16h2.117v1.549
		h-2.117v3.858c0,0.7,0.359,0.983,0.969,0.983c0.402,0,0.76-0.09,1.119-0.268v1.475c-0.448,0.253-0.955,0.403-1.624,0.403
		C41.898,28.099,40.959,27.517,40.959,25.788"/>
	<path clip-path="url(#SVGID_2_)" fill="#555759" d="M45.297,24.061v-0.031c0-2.249,1.594-4.098,3.842-4.098
		c2.504,0,3.771,1.969,3.771,4.231c0,0.164-0.015,0.329-0.029,0.507h-5.78c0.192,1.281,1.101,1.996,2.264,1.996
		c0.879,0,1.504-0.328,2.13-0.938l1.059,0.938c-0.744,0.896-1.772,1.475-3.219,1.475C47.055,28.141,45.297,26.488,45.297,24.061
		 M51.123,23.478c-0.119-1.161-0.805-2.07-1.996-2.07c-1.104,0-1.879,0.849-2.043,2.07H51.123z"/>
</g>
<g>
	<defs>
		<polygon id="SVGID_3_" points="12.172,31.694 12.172,45.203 20.71,45.203 20.71,42.875 14.552,42.875 14.552,39.505 
			19.808,39.505 19.808,37.286 14.552,37.286 14.552,34.021 20.71,34.021 20.71,31.694 		"/>
	</defs>
	<clipPath id="SVGID_4_">
		<use xlink:href="#SVGID_3_"  overflow="visible"/>
	</clipPath>
	
		<linearGradient id="SVGID_5_" gradientUnits="userSpaceOnUse" x1="45.8281" y1="661.0762" x2="46.8281" y2="661.0762" gradientTransform="matrix(0 -13.1203 -13.1203 0 8689.9766 646.0625)">
		<stop  offset="0" style="stop-color:#008594"/>
		<stop  offset="0.65" style="stop-color:#00BACD"/>
		<stop  offset="1" style="stop-color:#00BACD"/>
	</linearGradient>
	<rect x="12.172" y="31.694" clip-path="url(#SVGID_4_)" fill="url(#SVGID_5_)" width="8.538" height="13.509"/>
</g>
<g>
	<defs>
		<polygon id="SVGID_6_" points="29.125,31.694 26.742,35.97 24.36,31.694 21.654,31.694 25.407,38.287 21.409,45.203 
			24.107,45.203 26.742,40.588 29.37,45.203 32.083,45.203 27.961,38.287 31.829,31.694 		"/>
	</defs>
	<clipPath id="SVGID_7_">
		<use xlink:href="#SVGID_6_"  overflow="visible"/>
	</clipPath>
	
		<linearGradient id="SVGID_8_" gradientUnits="userSpaceOnUse" x1="45.8281" y1="661.0762" x2="46.8281" y2="661.0762" gradientTransform="matrix(0 -13.1203 -13.1203 0 8700.2891 646.0625)">
		<stop  offset="0" style="stop-color:#008594"/>
		<stop  offset="0.65" style="stop-color:#00BACD"/>
		<stop  offset="1" style="stop-color:#00BACD"/>
	</linearGradient>
	<rect x="21.409" y="31.694" clip-path="url(#SVGID_7_)" fill="url(#SVGID_8_)" width="10.674" height="13.509"/>
</g>
<g>
	<defs>
		<path id="SVGID_9_" d="M35.385,34.021h2.542h0.063c0.443,0,0.84,0.109,1.183,0.336c0.224,0.135,0.397,0.313,0.515,0.532
			c0.123,0.271,0.188,0.608,0.188,1.009c0,0.479-0.152,0.9-0.46,1.291c-0.315,0.391-0.783,0.585-1.424,0.598h-2.606V34.021z
			 M33.005,31.694v13.509h2.38v-5.088h2.686c1.365-0.028,2.425-0.491,3.144-1.373c0.69-0.836,1.041-1.772,1.041-2.79
			c0-0.747-0.139-1.409-0.409-1.956c-0.264-0.578-0.613-1.031-1.035-1.338c-0.498-0.405-1-0.679-1.506-0.816
			c-0.475-0.099-0.977-0.147-1.484-0.147H33.005z"/>
	</defs>
	<clipPath id="SVGID_10_">
		<use xlink:href="#SVGID_9_"  overflow="visible"/>
	</clipPath>
	
		<linearGradient id="SVGID_11_" gradientUnits="userSpaceOnUse" x1="45.8281" y1="661.0762" x2="46.8281" y2="661.0762" gradientTransform="matrix(0 -13.1203 -13.1203 0 8711.1719 646.0625)">
		<stop  offset="0" style="stop-color:#008594"/>
		<stop  offset="0.65" style="stop-color:#00BACD"/>
		<stop  offset="1" style="stop-color:#00BACD"/>
	</linearGradient>
	<rect x="33.005" y="31.694" clip-path="url(#SVGID_10_)" fill="url(#SVGID_11_)" width="9.25" height="13.509"/>
</g>
<g>
	<defs>
		<path id="SVGID_12_" d="M46.952,42.613l-0.015-0.008c-0.295-0.15-0.541-0.349-0.719-0.586l-0.011-0.016
			c-0.222-0.247-0.367-0.58-0.442-0.995c-0.089-0.436-0.132-1.297-0.132-2.561s0.046-2.132,0.134-2.586
			c0.073-0.396,0.219-0.723,0.44-0.971l0.011-0.013c0.182-0.241,0.424-0.446,0.721-0.607c0.289-0.154,0.645-0.236,1.055-0.25
			c0.416,0.014,0.779,0.096,1.072,0.246c0.287,0.163,0.518,0.366,0.688,0.604l0.015,0.021c0.221,0.249,0.375,0.58,0.457,0.974
			c0.084,0.449,0.127,1.319,0.127,2.583s-0.043,2.125-0.127,2.561c-0.082,0.412-0.236,0.745-0.457,0.995l-0.015,0.021
			c-0.17,0.236-0.397,0.433-0.69,0.587c-0.299,0.177-0.658,0.264-1.07,0.264C47.587,42.875,47.236,42.788,46.952,42.613
			 M45.377,32.359c-0.699,0.487-1.218,1.054-1.541,1.681c-0.202,0.34-0.355,0.784-0.451,1.322c-0.091,0.531-0.134,1.54-0.134,3.086
			c0,1.519,0.043,2.521,0.134,3.064c0.049,0.29,0.109,0.541,0.189,0.745c0.072,0.182,0.16,0.375,0.258,0.581
			c0.32,0.636,0.842,1.201,1.543,1.677c0.7,0.502,1.582,0.77,2.617,0.795h0.012c1.046-0.025,1.936-0.293,2.637-0.793
			c0.69-0.476,1.196-1.038,1.51-1.667c0.226-0.343,0.384-0.793,0.47-1.347c0.078-0.54,0.114-1.538,0.114-3.056
			c0-1.539-0.036-2.544-0.114-3.077c-0.086-0.538-0.244-0.983-0.47-1.324c-0.312-0.631-0.818-1.196-1.506-1.684
			c-0.707-0.504-1.596-0.763-2.65-0.776C46.958,31.601,46.076,31.859,45.377,32.359"/>
	</defs>
	<clipPath id="SVGID_13_">
		<use xlink:href="#SVGID_12_"  overflow="visible"/>
	</clipPath>
	
		<linearGradient id="SVGID_14_" gradientUnits="userSpaceOnUse" x1="45.8286" y1="661.0771" x2="46.8291" y2="661.0771" gradientTransform="matrix(0 -13.1201 -13.1201 0 8721.3906 646.0547)">
		<stop  offset="0" style="stop-color:#008594"/>
		<stop  offset="0.65" style="stop-color:#00BACD"/>
		<stop  offset="1" style="stop-color:#00BACD"/>
	</linearGradient>
	<rect x="43.251" y="31.587" clip-path="url(#SVGID_13_)" fill="url(#SVGID_14_)" width="9.483" height="13.724"/>
</g>
<g>
	<defs>
		<rect id="SVGID_15_" width="63.54" height="72.838"/>
	</defs>
	<clipPath id="SVGID_16_">
		<use xlink:href="#SVGID_15_"  overflow="visible"/>
	</clipPath>
	<path clip-path="url(#SVGID_16_)" fill="#77BC1F" d="M11.074,11.058L9.305,9.289c12.388-12.385,32.544-12.387,44.929,0
		l-1.768,1.769C41.055-0.354,22.485-0.353,11.074,11.058"/>
</g>
<g>
	<defs>
		<rect id="SVGID_17_" width="63.541" height="72.838"/>
	</defs>
	<clipPath id="SVGID_18_">
		<use xlink:href="#SVGID_17_"  overflow="visible"/>
	</clipPath>
	<path clip-path="url(#SVGID_18_)" fill="#007DA4" d="M10.216,51.551c-4.981-5.413-7.715-12.394-7.715-19.796
		c0-7.818,3.044-15.168,8.572-20.694l-1.768-1.77C3.304,15.293,0,23.268,0,31.755c0,7.284,2.441,14.19,6.927,19.796H10.216z"/>
	<path clip-path="url(#SVGID_18_)" fill="#00837B" d="M53.324,51.551h3.291c4.484-5.605,6.926-12.512,6.926-19.796
		c0-8.487-3.305-16.465-9.307-22.466l-1.768,1.769c5.529,5.529,8.572,12.879,8.572,20.697
		C61.039,39.156,58.307,46.138,53.324,51.551"/>
	<path clip-path="url(#SVGID_18_)" fill="#717271" d="M16.295,61.216v-0.01c0-0.555,0.45-0.845,1.106-0.845
		c0.33,0,0.56,0.045,0.79,0.109V60.39c0-0.46-0.28-0.7-0.765-0.7c-0.305,0-0.545,0.076-0.786,0.186l-0.115-0.315
		c0.285-0.13,0.561-0.22,0.941-0.22c0.365,0,0.65,0.1,0.835,0.285c0.18,0.181,0.27,0.431,0.27,0.761v1.58h-0.38v-0.385
		c-0.18,0.229-0.475,0.439-0.93,0.439C16.775,62.021,16.295,61.746,16.295,61.216 M18.196,61.016v-0.239
		c-0.19-0.056-0.44-0.11-0.755-0.11c-0.481,0-0.756,0.21-0.756,0.52v0.011c0,0.324,0.301,0.515,0.651,0.515
		C17.811,61.711,18.196,61.426,18.196,61.016"/>
	<path clip-path="url(#SVGID_18_)" fill="#717271" d="M19.636,59.38h0.385v0.45c0.17-0.28,0.44-0.505,0.885-0.505
		c0.626,0,0.991,0.42,0.991,1.035v1.605h-0.385v-1.511c0-0.479-0.26-0.78-0.716-0.78c-0.445,0-0.775,0.325-0.775,0.811v1.48h-0.385
		V59.38z"/>
	<path clip-path="url(#SVGID_18_)" fill="#717271" d="M25.858,61.691c0.355,0,0.605-0.146,0.815-0.366l0.24,0.215
		c-0.26,0.291-0.575,0.485-1.065,0.485c-0.711,0-1.291-0.545-1.291-1.35c0-0.75,0.525-1.351,1.241-1.351
		c0.765,0,1.205,0.61,1.205,1.37c0,0.035,0,0.075-0.005,0.135h-2.051C25.002,61.376,25.403,61.691,25.858,61.691 M26.613,60.521
		c-0.045-0.47-0.315-0.87-0.825-0.87c-0.445,0-0.786,0.37-0.841,0.87H26.613z"/>
	<polygon clip-path="url(#SVGID_18_)" fill="#717271" points="27.548,59.38 27.973,59.38 28.844,61.526 29.719,59.38 30.134,59.38 
		29.009,61.986 28.668,61.986 	"/>
	<path clip-path="url(#SVGID_18_)" fill="#717271" d="M31.979,61.691c0.355,0,0.605-0.146,0.815-0.366l0.241,0.215
		c-0.261,0.291-0.576,0.485-1.065,0.485c-0.71,0-1.291-0.545-1.291-1.35c0-0.75,0.525-1.351,1.241-1.351
		c0.765,0,1.206,0.61,1.206,1.37c0,0.035,0,0.075-0.006,0.135h-2.051C31.124,61.376,31.524,61.691,31.979,61.691 M32.734,60.521
		c-0.045-0.47-0.315-0.87-0.825-0.87c-0.445,0-0.786,0.37-0.841,0.87H32.734z"/>
	<path clip-path="url(#SVGID_18_)" fill="#717271" d="M34.05,59.38h0.385v0.45c0.17-0.28,0.44-0.505,0.886-0.505
		c0.625,0,0.99,0.42,0.99,1.035v1.605h-0.385v-1.511c0-0.479-0.26-0.78-0.717-0.78c-0.444,0-0.774,0.325-0.774,0.811v1.48H34.05
		V59.38z"/>
	<path clip-path="url(#SVGID_18_)" fill="#717271" d="M37.516,61.28V59.72h-0.359v-0.339h0.359V58.6H37.9v0.781h0.82v0.339H37.9
		v1.511c0,0.315,0.176,0.431,0.436,0.431c0.13,0,0.24-0.025,0.375-0.091v0.331c-0.135,0.069-0.28,0.109-0.465,0.109
		C37.83,62.011,37.516,61.806,37.516,61.28"/>
	<path clip-path="url(#SVGID_18_)" fill="#717271" d="M41.786,61.471v0.495h-0.385v-3.651h0.385V59.9
		c0.21-0.31,0.515-0.575,0.991-0.575c0.619,0,1.234,0.49,1.234,1.341v0.01c0,0.845-0.609,1.345-1.234,1.345
		C42.297,62.021,41.987,61.761,41.786,61.471 M43.617,60.681v-0.01c0-0.61-0.42-1-0.91-1c-0.48,0-0.936,0.404-0.936,0.995v0.01
		c0,0.6,0.455,1,0.936,1C43.207,61.676,43.617,61.306,43.617,60.681"/>
	<path clip-path="url(#SVGID_18_)" fill="#717271" d="M44.697,62.651l0.131-0.305c0.125,0.064,0.239,0.095,0.404,0.095
		c0.23,0,0.375-0.12,0.53-0.485l-1.175-2.576h0.425l0.94,2.156l0.83-2.156h0.41l-1.086,2.672c-0.22,0.534-0.47,0.729-0.859,0.729
		C45.033,62.781,44.873,62.736,44.697,62.651"/>
	<polygon clip-path="url(#SVGID_18_)" fill="#555759" points="11.506,66.306 12.727,66.306 14.258,71.066 15.836,66.286 
		16.79,66.286 18.367,71.066 19.9,66.306 21.084,66.306 18.846,72.772 17.873,72.772 16.295,68.159 14.717,72.772 13.745,72.772 	
		"/>
	<path clip-path="url(#SVGID_18_)" fill="#555759" d="M23.928,72.728V72.13c-0.33,0.396-0.834,0.697-1.568,0.697
		c-0.918,0-1.726-0.521-1.726-1.494v-0.019c0-1.074,0.835-1.587,1.964-1.587c0.587,0,0.964,0.08,1.338,0.202v-0.093
		c0-0.668-0.422-1.037-1.192-1.037c-0.541,0-0.944,0.12-1.385,0.304l-0.303-0.89c0.532-0.239,1.056-0.405,1.844-0.405
		c1.431,0,2.128,0.753,2.128,2.048v2.871H23.928z M23.955,70.7c-0.284-0.11-0.679-0.194-1.109-0.194c-0.698,0-1.11,0.286-1.11,0.753
		v0.02c0,0.458,0.412,0.715,0.935,0.715c0.734,0,1.284-0.412,1.284-1.018V70.7z"/>
	<path clip-path="url(#SVGID_18_)" fill="#555759" d="M25.496,72.094l0.495-0.751c0.523,0.394,1.093,0.597,1.588,0.597
		c0.477,0,0.753-0.203,0.753-0.524v-0.018c0-0.377-0.514-0.504-1.084-0.679c-0.715-0.202-1.514-0.496-1.514-1.423v-0.017
		c0-0.919,0.762-1.479,1.726-1.479c0.605,0,1.266,0.211,1.779,0.55L28.8,69.14c-0.468-0.283-0.964-0.458-1.367-0.458
		c-0.432,0-0.68,0.201-0.68,0.487v0.017c0,0.349,0.524,0.495,1.093,0.68c0.705,0.22,1.504,0.542,1.504,1.413v0.018
		c0,1.019-0.789,1.523-1.798,1.523C26.863,72.819,26.103,72.571,25.496,72.094"/>
	<path clip-path="url(#SVGID_18_)" fill="#555759" d="M30.249,71.388v-2.552h-0.615v-0.953h0.615v-1.33h1.11v1.33h1.303v0.953
		h-1.303v2.376c0,0.431,0.22,0.605,0.597,0.605c0.247,0,0.467-0.053,0.686-0.163v0.908c-0.275,0.156-0.586,0.248-0.999,0.248
		C30.826,72.811,30.249,72.452,30.249,71.388"/>
	<path clip-path="url(#SVGID_18_)" fill="#555759" d="M32.918,70.324v-0.019c0-1.386,0.982-2.523,2.368-2.523
		c1.541,0,2.322,1.212,2.322,2.605c0,0.1-0.011,0.202-0.021,0.312h-3.56c0.12,0.789,0.681,1.229,1.394,1.229
		c0.543,0,0.928-0.2,1.314-0.577l0.65,0.577c-0.459,0.553-1.092,0.909-1.982,0.909C34,72.838,32.918,71.818,32.918,70.324
		 M36.506,69.966c-0.072-0.717-0.494-1.275-1.229-1.275c-0.679,0-1.157,0.522-1.259,1.275H36.506z"/>
</g>
<g>
	<defs>
		<path id="SVGID_19_" d="M39.094,66.203c-0.361,0.36-0.572,0.813-0.623,1.342l-0.009,0.087h1.111l0.015-0.062
			c0.057-0.265,0.168-0.464,0.33-0.587c0.155-0.127,0.32-0.185,0.507-0.185c0.267,0.005,0.476,0.087,0.642,0.255
			c0.168,0.174,0.252,0.392,0.258,0.66c0,0.27-0.081,0.482-0.25,0.648c-0.165,0.174-0.396,0.258-0.704,0.258h-0.411v1.029h0.491
			c0.276,0,0.497,0.082,0.676,0.258c0.179,0.175,0.272,0.432,0.278,0.757c-0.006,0.319-0.1,0.569-0.279,0.742
			c-0.18,0.185-0.395,0.273-0.652,0.273c-0.244,0-0.434-0.064-0.578-0.203c-0.146-0.131-0.261-0.309-0.343-0.526l-0.019-0.052h-1.11
			l0.017,0.093c0.108,0.591,0.347,1.047,0.707,1.358c0.367,0.315,0.791,0.475,1.266,0.475c0.607-0.007,1.113-0.211,1.503-0.604
			c0.396-0.385,0.597-0.919,0.606-1.588c0-0.298-0.064-0.591-0.193-0.867c-0.121-0.247-0.309-0.463-0.562-0.646
			c0.244-0.186,0.422-0.395,0.527-0.625c0.1-0.256,0.146-0.523,0.146-0.797c-0.006-0.541-0.188-1.02-0.543-1.417
			c-0.373-0.41-0.879-0.62-1.51-0.627C39.889,65.658,39.452,65.843,39.094,66.203"/>
	</defs>
	<clipPath id="SVGID_20_">
		<use xlink:href="#SVGID_19_"  overflow="visible"/>
	</clipPath>
	
		<linearGradient id="SVGID_21_" gradientUnits="userSpaceOnUse" x1="82.7573" y1="661.1377" x2="83.7573" y2="661.1377" gradientTransform="matrix(0 -7.194 -7.194 0 4796.6953 668.7344)">
		<stop  offset="0" style="stop-color:#008594"/>
		<stop  offset="0.65" style="stop-color:#00BACD"/>
		<stop  offset="1" style="stop-color:#00BACD"/>
	</linearGradient>
	<rect x="38.423" y="65.651" clip-path="url(#SVGID_20_)" fill="url(#SVGID_21_)" width="4.099" height="7.172"/>
</g>
<g>
	<defs>
		<path id="SVGID_22_" d="M44.273,70.702v-0.563c0.012-0.645,0.291-0.965,0.857-0.978c0.562,0.013,0.848,0.333,0.864,0.978v0.562
			c-0.017,0.651-0.302,0.972-0.864,0.978C44.564,71.673,44.285,71.353,44.273,70.702 M43.773,66.184
			c-0.401,0.357-0.611,0.871-0.617,1.528v3.048c0.006,0.653,0.216,1.166,0.617,1.523c0.377,0.353,0.836,0.533,1.357,0.54
			c0.539-0.007,1.003-0.188,1.379-0.54c0.387-0.359,0.588-0.871,0.602-1.527v-0.629c0.005-0.684-0.152-1.195-0.467-1.52
			c-0.319-0.316-0.715-0.476-1.174-0.476l-0.052-0.002c-0.356,0-0.741,0.063-1.146,0.185v-0.537c0.012-0.649,0.291-0.97,0.853-0.979
			c0.403,0.005,0.665,0.178,0.804,0.527l0.021,0.05h1.141l-0.017-0.095c-0.1-0.523-0.331-0.934-0.689-1.217
			c-0.365-0.271-0.785-0.412-1.254-0.412C44.609,65.651,44.15,65.831,43.773,66.184"/>
	</defs>
	<clipPath id="SVGID_23_">
		<use xlink:href="#SVGID_22_"  overflow="visible"/>
	</clipPath>
	
		<linearGradient id="SVGID_24_" gradientUnits="userSpaceOnUse" x1="82.7573" y1="661.1377" x2="83.7573" y2="661.1377" gradientTransform="matrix(0 -7.194 -7.194 0 4801.3594 668.7344)">
		<stop  offset="0" style="stop-color:#008594"/>
		<stop  offset="0.65" style="stop-color:#00BACD"/>
		<stop  offset="1" style="stop-color:#00BACD"/>
	</linearGradient>
	<rect x="43.156" y="65.651" clip-path="url(#SVGID_23_)" fill="url(#SVGID_24_)" width="3.96" height="7.172"/>
</g>
<g>
	<defs>
		<path id="SVGID_25_" d="M49.02,70.702v-2.93c0.012-0.645,0.291-0.965,0.859-0.975c0.562,0.01,0.846,0.33,0.861,0.975v2.929
			c-0.016,0.651-0.299,0.972-0.861,0.978C49.311,71.673,49.031,71.353,49.02,70.702 M48.523,66.184
			c-0.405,0.357-0.614,0.871-0.621,1.528v3.048c0.007,0.653,0.216,1.166,0.619,1.523c0.375,0.353,0.832,0.533,1.355,0.54h0.002
			c0.538-0.007,1.002-0.188,1.38-0.54c0.382-0.359,0.587-0.871,0.599-1.527v-3.044c-0.012-0.657-0.217-1.17-0.599-1.526
			c-0.378-0.354-0.842-0.534-1.38-0.534C49.354,65.651,48.896,65.831,48.523,66.184"/>
	</defs>
	<clipPath id="SVGID_26_">
		<use xlink:href="#SVGID_25_"  overflow="visible"/>
	</clipPath>
	
		<linearGradient id="SVGID_27_" gradientUnits="userSpaceOnUse" x1="82.7573" y1="661.1387" x2="83.7573" y2="661.1387" gradientTransform="matrix(0 -7.194 -7.194 0 4806.1094 668.7344)">
		<stop  offset="0" style="stop-color:#008594"/>
		<stop  offset="0.65" style="stop-color:#00BACD"/>
		<stop  offset="1" style="stop-color:#00BACD"/>
	</linearGradient>
	<rect x="47.902" y="65.651" clip-path="url(#SVGID_26_)" fill="url(#SVGID_27_)" width="3.955" height="7.172"/>
</g>
</svg>
